 <svg version="1.0" xmlns="http://www.w3.org/2000/svg"  width="300.000000pt" height="99.000000pt" viewBox="0 0 300.000000 99.000000"  preserveAspectRatio="xMidYMid meet">  <g transform="translate(0.000000,99.000000) scale(0.100000,-0.100000)" fill="#000000" stroke="none"> <path d="M25 971 c37 -8 2964 -5 2972 3 4 3 -671 6 -1498 5 -827 -1 -1491 -4 -1474 -8z"/> <path d="M2960 820 c-21 -7 -21 -8 -5 -9 11 0 27 4 35 9 18 11 5 11 -30 0z"/> <path d="M2888 803 c7 -3 16 -2 19 1 4 3 -2 6 -13 5 -11 0 -14 -3 -6 -6z"/> <path d="M2735 783 c-18 -14 -18 -15 -2 -9 10 3 23 6 28 6 5 0 9 5 9 10 0 14 -12 12 -35 -7z"/> <path d="M2848 793 c7 -3 16 -2 19 1 4 3 -2 6 -13 5 -11 0 -14 -3 -6 -6z"/> <path d="M2955 780 c-3 -5 1 -10 9 -10 9 0 16 5 16 10 0 6 -4 10 -9 10 -6 0 -13 -4 -16 -10z"/> <path d="M2685 770 c-19 -8 -19 -9 3 -9 12 -1 22 4 22 9 0 6 -1 10 -2 9 -2 0 -12 -4 -23 -9z"/> <path d="M2869 771 c22 -6 14 -11 -55 -40 -118 -49 -124 -52 -94 -46 l25 6 -24 -14 c-13 -8 -19 -17 -13 -20 12 -8 193 103 186 115 -3 4 -15 8 -27 7 -21 -1 -20 -1 2 -8z"/> <path d="M2810 758 c0 -4 4 -8 9 -8 6 0 12 4 15 8 3 5 -1 9 -9 9 -8 0 -15 -4 -15 -9z"/> <path d="M2565 744 l-30 -14 30 6 c31 6 41 11 34 18 -2 2 -17 -2 -34 -10z"/> <path d="M2618 753 c6 -2 18 -2 25 0 6 3 1 5 -13 5 -14 0 -19 -2 -12 -5z"/> <path d="M2753 753 c24 -6 11 -23 -18 -23 -14 0 -44 -9 -67 -19 -24 -11 -55 -22 -70 -26 -15 -3 -39 -17 -54 -30 -15 -14 -34 -23 -41 -21 -7 3 -12 2 -10 -2 1 -4 -1 -7 -4 -7 -3 0 -13 -6 -22 -13 -9 -8 -21 -11 -26 -7 -7 3 -8 0 -5 -9 3 -9 1 -16 -5 -16 -6 0 -11 5 -11 10 0 6 -4 10 -10 10 -5 0 -6 -7 -3 -17 4 -9 2 -14 -3 -10 -6 3 -16 -3 -24 -13 -8 -10 -18 -16 -23 -13 -6 3 -7 1 -3 -5 4 -7 -2 -16 -16 -23 -46 -22 -73 -69 -73 -126 0 -37 5 -57 15 -63 8 -5 11 -10 6 -10 -5 0 4 -10 20 -22 16 -13 35 -28 42 -35 7 -7 24 -16 38 -19 13 -3 21 -11 17 -17 -3 -6 -1 -7 5 -3 6 3 30 -2 54 -13 50 -22 207 -66 293 -82 33 -6 65 -14 70 -17 6 -4 26 -7 45 -8 19 -1 56 -6 83 -11 34 -7 47 -7 47 2 0 6 -52 20 -127 34 -417 75 -608 164 -590 276 10 64 79 127 215 198 40 21 70 42 67 48 -3 5 0 6 8 4 7 -3 54 13 104 35 50 22 95 40 101 40 6 0 14 5 18 12 4 6 3 8 -4 4 -6 -3 -13 -2 -17 4 -3 5 -14 9 -23 9 -15 -1 -15 -2 1 -6z"/> <path d="M2935 740 c-21 -23 -44 -28 -25 -5 17 20 8 19 -37 -6 -88 -48 -102 -60 -96 -76 5 -13 9 -11 24 8 20 26 40 18 23 -9 -15 -23 -1 -57 30 -77 31 -21 146 -33 146 -16 0 7 -20 11 -55 11 -62 0 -102 15 -110 41 -7 21 14 66 44 93 29 26 26 10 -4 -26 -28 -33 -33 -73 -9 -82 9 -3 43 -5 77 -4 l62 1 -60 6 c-33 3 -65 9 -72 14 -13 8 -5 47 10 47 6 0 8 3 4 6 -3 3 14 26 37 50 24 24 40 44 36 44 -4 0 -15 -9 -25 -20z m-75 -40 c-24 -15 -36 -11 -14 4 10 8 21 12 24 10 2 -3 -2 -9 -10 -14z"/> <path d="M2650 730 c0 -12 8 -12 35 0 18 8 17 9 -7 9 -16 1 -28 -3 -28 -9z"/> <path d="M2389 722 c-6 -17 -103 -51 -147 -52 -18 0 -35 -6 -38 -14 -3 -7 -34 -21 -70 -31 -35 -9 -64 -21 -64 -26 0 -5 -7 -9 -16 -9 -9 0 -59 -20 -111 -45 -52 -25 -96 -45 -99 -45 -3 0 -12 -7 -21 -16 -9 -8 -23 -12 -31 -9 -9 3 -13 3 -9 -1 9 -9 -51 -46 -63 -39 -6 4 -7 -2 -3 -11 5 -13 3 -16 -10 -11 -10 4 -17 1 -17 -6 0 -7 -12 -20 -27 -29 -16 -10 -45 -33 -65 -52 -21 -19 -38 -32 -38 -29 0 3 -12 -12 -27 -34 -32 -47 -71 -98 -93 -120 -8 -9 -15 -21 -15 -27 0 -6 -13 -30 -29 -53 l-29 -43 -679 1 c-374 0 -683 -2 -686 -5 -3 -4 308 -6 692 -6 l697 0 14 33 c24 57 117 180 188 249 96 93 196 159 353 234 115 55 390 156 461 170 13 2 46 11 75 19 46 12 49 14 20 14 -18 1 -48 -5 -67 -13 -31 -13 -34 -13 -37 2 -3 12 -5 13 -9 4z"/> <path d="M2561 718 c-29 -6 -40 -13 -31 -18 11 -7 100 16 100 26 0 6 -17 4 -69 -8z"/> <path d="M2930 695 c-11 -13 -10 -14 4 -9 9 3 16 10 16 15 0 13 -6 11 -20 -6z"/> <path d="M2438 688 c-21 -6 -38 -14 -38 -19 0 -4 -6 -6 -13 -3 -16 6 -256 -76 -354 -121 -94 -43 -224 -130 -289 -192 -84 -80 -156 -204 -179 -311 l-7 -32 294 1 c161 0 281 4 267 9 -52 15 -160 122 -191 187 -33 70 -10 157 56 215 17 15 26 28 21 28 -12 0 -44 -30 -78 -75 -20 -25 -24 -41 -23 -100 1 -41 6 -77 14 -85 7 -8 30 -38 53 -67 22 -29 48 -54 57 -57 9 -3 23 -15 30 -26 12 -20 10 -20 -233 -20 l-245 0 6 28 c25 103 58 167 111 218 12 12 20 24 17 26 -2 3 24 30 57 62 34 31 64 55 67 52 2 -3 14 6 25 20 11 14 26 23 34 20 8 -3 11 -1 8 4 -3 5 6 12 20 16 14 3 22 11 18 17 -4 6 0 8 11 4 9 -4 15 -3 12 2 -7 11 22 23 36 14 6 -3 8 -2 5 4 -6 10 48 33 89 38 14 1 28 6 32 10 4 4 -4 5 -18 1 -21 -5 -20 -3 5 9 17 7 38 11 49 8 12 -3 16 -1 12 6 -4 6 -3 11 3 11 5 0 16 2 24 5 8 4 14 0 14 -8 0 -8 -18 -22 -39 -32 -22 -9 -37 -19 -35 -21 3 -3 30 7 61 23 53 25 55 28 35 39 -21 11 -20 12 14 18 20 4 57 16 83 27 31 14 49 18 56 11 13 -13 40 -4 31 11 -4 6 4 8 23 3 18 -4 24 -3 16 2 -11 7 -10 10 3 16 27 10 42 7 25 -5 -12 -9 -12 -10 3 -5 10 3 24 6 30 6 7 0 6 4 -3 10 -18 12 -33 11 -82 -2z"/> <path d="M2580 627 c-282 -141 -343 -250 -185 -330 84 -42 318 -94 523 -115 65 -6 82 -5 82 5 0 12 -14 18 -35 13 -18 -3 -194 23 -190 29 1 3 -13 6 -33 7 -78 1 -148 16 -243 50 -20 7 -39 10 -43 7 -3 -4 -6 -1 -6 5 0 7 -3 11 -7 11 -16 -3 -92 34 -88 42 3 4 0 11 -6 15 -8 5 -9 3 -4 -7 5 -8 4 -11 0 -6 -16 14 -17 77 0 83 8 3 13 9 10 14 -7 12 54 62 67 54 7 -4 8 -3 4 5 -4 6 0 14 11 18 10 3 26 13 36 22 10 8 26 16 35 17 9 2 18 7 20 13 2 5 9 8 17 5 7 -3 16 0 21 7 5 8 3 10 -7 4 -10 -6 -11 -5 -3 4 6 7 21 13 33 14 11 1 21 5 21 9 0 4 7 4 17 1 10 -4 14 -2 10 4 -7 11 42 38 51 28 9 -8 -52 -60 -68 -57 -12 2 -12 1 -2 -6 11 -8 10 -13 -5 -28 -24 -23 -28 -77 -8 -94 8 -7 12 -17 8 -23 -3 -6 -1 -7 5 -3 7 4 12 1 12 -8 0 -17 1 -17 38 -21 12 -1 26 -6 30 -10 4 -5 0 -6 -9 -3 -9 4 -16 1 -16 -8 0 -7 5 -10 10 -7 5 3 14 -1 19 -8 8 -11 9 -10 4 4 -6 20 -6 20 31 6 28 -11 43 -13 138 -24 28 -3 67 -8 88 -11 28 -4 37 -1 37 9 0 11 -20 17 -82 22 -174 14 -262 41 -294 90 -23 35 -12 68 42 125 27 29 41 51 34 55 -6 3 -8 11 -5 16 11 17 -10 9 -115 -44z"/> <path d="M2690 601 c-88 -86 -79 -132 32 -166 73 -23 278 -33 278 -14 0 14 -45 19 -190 20 -53 0 -88 12 -102 33 -6 8 -11 6 -18 -4 -8 -13 -10 -12 -10 3 0 9 -7 17 -15 17 -18 0 -18 4 -3 47 7 19 18 32 26 30 8 -1 17 5 19 13 4 13 3 13 -6 0 -6 -8 -11 -10 -11 -4 0 7 12 20 28 30 46 30 65 54 42 54 -5 0 -37 -27 -70 -59z"/> <path d="M2345 630 c-4 -6 -9 -8 -13 -6 -4 2 -16 -2 -27 -10 -27 -20 -7 -17 40 6 22 11 32 19 23 20 -9 0 -20 -5 -23 -10z"/> <path d="M2435 630 c-3 -6 1 -7 9 -4 18 7 21 14 7 14 -6 0 -13 -4 -16 -10z"/> <path d="M2968 623 c6 -2 18 -2 25 0 6 3 1 5 -13 5 -14 0 -19 -2 -12 -5z"/> <path d="M2350 601 c-25 -11 -54 -22 -65 -26 -11 -4 -15 -9 -9 -11 6 -3 39 9 75 25 71 33 70 41 -1 12z"/> <path d="M2190 528 c-30 -17 -74 -44 -98 -59 -24 -16 -46 -29 -50 -29 -4 0 -18 -17 -32 -38 -14 -20 -29 -40 -33 -43 -5 -3 -12 -23 -17 -44 -9 -40 9 -105 29 -105 5 0 3 12 -5 28 -22 42 -17 80 18 133 34 53 132 124 214 155 24 9 44 21 44 25 0 14 -11 10 -70 -23z"/> <path d="M2985 530 c3 -5 8 -10 11 -10 2 0 4 5 4 10 0 6 -5 10 -11 10 -5 0 -7 -4 -4 -10z"/> <path d="M2098 518 c-7 -7 -30 -21 -52 -31 -21 -10 -36 -20 -33 -23 6 -7 62 21 96 47 13 11 19 19 13 19 -6 0 -17 -6 -24 -12z"/> <path d="M2380 370 c-9 -6 -10 -10 -3 -10 6 0 15 5 18 10 8 12 4 12 -15 0z"/> <path d="M2033 165 c40 -35 184 -112 193 -102 3 3 -4 8 -15 12 -12 3 -21 10 -21 15 0 5 -12 10 -27 12 -17 2 -27 8 -25 16 2 9 -4 11 -18 7 -11 -4 -20 -2 -20 4 0 6 -5 11 -11 11 -6 0 -16 6 -24 13 -27 26 -56 47 -63 47 -4 0 10 -16 31 -35z"/> <path d="M1626 143 c-6 -14 -5 -15 5 -6 7 7 10 15 7 18 -3 3 -9 -2 -12 -12z"/> <path d="M2240 55 c0 -2 21 -13 46 -25 44 -19 63 -20 383 -18 l336 2 -340 6 c-295 4 -345 7 -379 23 -41 18 -46 20 -46 12z"/> <path d="M2168 13 c6 -2 18 -2 25 0 6 3 1 5 -13 5 -14 0 -19 -2 -12 -5z"/> </g> </svg> 